<svg id="Layer_1" data-name="Layer 1" xmlns="http://www.w3.org/2000/svg" xmlns:xlink="http://www.w3.org/1999/xlink" viewBox="0 0 1078.5 1079.5">
  <defs>
    <linearGradient id="linear-gradient" y1="539.5" x2="1078.5" y2="539.5" gradientUnits="userSpaceOnUse">
      <stop offset="0" stop-color="#f2994a"/>
      <stop offset="0.3" stop-color="#f2a24a"/>
      <stop offset="0.79" stop-color="#f2bc4b"/>
      <stop offset="1" stop-color="#f2c94c"/>
    </linearGradient>
  </defs>
  <title>TEL-PP</title>
  <rect width="1078.5" height="1079" fill="url(#linear-gradient)"/>
  <g>
    <g>
      <path d="M780.77,291.21c11.8-44.25-2.56-123.3-2.56-123.3C684.81-72,356.94,50.64,314.67,151.92c-29.77,71.3-33.92,105.52-35.74,120.74-1,8.54,19,38,19,38a15.52,15.52,0,0,1,2,15.22l-64.58,99.53c-7.77,15-.17,33.67,22,33.67h15.48c5,0,11.07,9.17,9,13.75l-5.35,11.92a13.72,13.72,0,0,0,2.88,14.56l13.07,12.42a24.57,24.57,0,0,0-6.73,16.33c0,9.83,23.45,18.54,12.63,43.11-6.21,14.12.87,32.85,11.7,47.44,24.65,33.17,51.85,23.1,107.68,13.19,66.3-11.77,43.71,29.9,57.81,50,24.57,35-10.05,75.06-19.09,109.67l351-151.4C682.6,552.62,769,335.46,780.77,291.21Z" transform="translate(-0.5 -0.5)" fill="#0f3057"/>
      <path d="M834.75,677.6l-59.57-89.53S642.93,604,525.93,702.24c31-26.06-103.44,128.62-115,172.32C411,874.56,601.92,715.39,834.75,677.6Z" transform="translate(-0.5 -0.5)" fill="#0f3057"/>
      <path d="M321,180s-64.78-49.95,7-91.32,269.81-115,390.55,8.86S321,180,321,180Z" transform="translate(-0.5 -0.5)" fill="#0f3057"/>
    </g>
    <path d="M886.71,1080c19-71.47-43.17-382.59-90.34-420.27L448.47,815s-45.55,146.48-72.24,265Z" transform="translate(-0.5 -0.5)" fill="#0f3057"/>
  </g>
</svg>
