<svg id="Layer_1" data-name="Layer 1" xmlns="http://www.w3.org/2000/svg" viewBox="0 0 841.89 1190.55">
  <title>TELECIN-COVER-MOVIE-LIST</title>
  <rect width="841.89" height="1190.55" fill="#f18550"/>
  <g>
    <polygon points="557.64 574.81 548.84 583.27 561.8 663.59 572.82 668.85 648.29 704.93 617.94 516.83 557.64 574.81" fill="#29235c"/>
    <path d="M569.44,710.92a18.28,18.28,0,0,1-15.15,21L288.74,774.74a18.29,18.29,0,0,1-21-15.14l-28.24-175a18.3,18.3,0,0,1,15.14-21l265.55-42.85a18.28,18.28,0,0,1,21,15.15Z" fill="#27348b"/>
    <g>
      <g>
        <path d="M505.63,433.46a60.83,60.83,0,1,1-69.74-50.37A60.81,60.81,0,0,1,505.63,433.46Z" fill="#27348b"/>
        <path d="M431.48,355.73A88.55,88.55,0,1,0,533,429,88.56,88.56,0,0,0,431.48,355.73ZM401.06,475a24.21,24.21,0,1,1,20-27.76A24.21,24.21,0,0,1,401.06,475Zm32.71-104.16a24.21,24.21,0,1,1-20,27.75A24.22,24.22,0,0,1,433.77,370.85ZM457.4,515.43a24.2,24.2,0,1,1,20.06-27.75A24.21,24.21,0,0,1,457.4,515.43Zm40.43-56.35a24.21,24.21,0,1,1,20.06-27.75A24.22,24.22,0,0,1,497.83,459.08Z" fill="#29235c"/>
      </g>
      <g>
        <path d="M334.29,476.67A46.5,46.5,0,1,1,281,438.17,46.5,46.5,0,0,1,334.29,476.67Z" fill="#27348b"/>
        <path d="M276.73,411.84a73.17,73.17,0,1,0,83.88,60.58A73.18,73.18,0,0,0,276.73,411.84Zm-25.16,98.58a20,20,0,1,1,16.57-22.94A20,20,0,0,1,251.57,510.42Zm27-86.07a20,20,0,1,1-16.56,22.93A20,20,0,0,1,278.61,424.35Zm19.54,119.47a20,20,0,1,1,16.56-22.94A20,20,0,0,1,298.15,543.82Zm33.41-46.56a20,20,0,1,1,16.56-22.94A20,20,0,0,1,331.56,497.26Z" fill="#29235c"/>
      </g>
    </g>
    <rect x="289.75" y="596.1" width="100.83" height="132.17" transform="translate(-101.14 62.65) rotate(-9.17)" fill="#29235c"/>
    <rect x="426.94" y="601.82" width="100.84" height="76.44" transform="translate(-95.87 84.22) rotate(-9.17)" fill="#29235c"/>
  </g>
</svg>
