<svg id="Layer_1" data-name="Layer 1" xmlns="http://www.w3.org/2000/svg" viewBox="0 0 1366 768">
  <title>TELECIN-COVER-DETAIL</title>
  <rect width="1366" height="768" fill="#ff931e"/>
  <g>
    <g>
      <g>
        <rect x="267.1" y="278.67" width="341.92" height="32.08" transform="translate(-19.26 30.88) rotate(-3.95)" fill="#353947"/>
        <g>
          <polygon points="277.69 289.7 267.59 307.55 268.61 322.49 281.14 321.62 300.09 288.15 277.69 289.7" fill="#fff"/>
          <polygon points="326.47 318.49 304.06 320.04 323.02 286.57 345.41 285.02 326.47 318.49" fill="#dfe5e9"/>
          <polygon points="371.79 315.36 349.39 316.9 368.35 283.44 390.75 281.89 371.79 315.36" fill="#dfe5e9"/>
          <polygon points="417.12 312.24 394.72 313.78 413.68 280.32 436.06 278.76 417.12 312.24" fill="#dfe5e9"/>
          <polygon points="462.44 309.1 440.05 310.66 459 277.19 481.4 275.64 462.44 309.1" fill="#dfe5e9"/>
          <polygon points="507.77 305.97 485.37 307.52 504.32 274.06 526.72 272.51 507.77 305.97" fill="#dfe5e9"/>
          <polygon points="553.11 302.85 530.7 304.39 549.66 270.93 572.06 269.38 553.11 302.85" fill="#dfe5e9"/>
          <polygon points="607.5 266.93 594.98 267.8 576.02 301.27 598.43 299.72 608.53 281.87 607.5 266.93" fill="#dfe5e9"/>
        </g>
      </g>
      <g>
        <polygon points="266.39 290.4 597.09 205.32 589.09 174.26 264.16 257.84 266.39 290.4" fill="#353947"/>
        <g>
          <polygon points="268.91 256.62 264.88 268.33 266.39 290.4 278.1 287.38 290.65 251.02 268.91 256.62" fill="#fff"/>
          <polygon points="322.11 276.06 300.37 281.65 312.92 245.3 334.67 239.71 322.11 276.06" fill="#dfe5e9"/>
          <polygon points="366.1 264.74 344.37 270.34 356.92 233.98 378.66 228.38 366.1 264.74" fill="#dfe5e9"/>
          <polygon points="410.11 253.42 388.38 259.01 400.92 222.66 422.67 217.06 410.11 253.42" fill="#dfe5e9"/>
          <polygon points="454.11 242.11 432.38 247.69 444.92 211.33 466.67 205.75 454.11 242.11" fill="#dfe5e9"/>
          <polygon points="498.12 230.78 476.37 236.38 488.92 200.02 510.67 194.42 498.12 230.78" fill="#dfe5e9"/>
          <polygon points="542.11 219.46 520.37 225.06 532.93 188.7 554.68 183.1 542.11 219.46" fill="#dfe5e9"/>
          <polygon points="589.09 174.26 576.93 177.38 564.38 213.74 586.12 208.15 592.82 188.75 589.09 174.26" fill="#dfe5e9"/>
        </g>
      </g>
      <polygon points="333.05 318.04 268.61 322.49 264.14 257.77 295.96 249.67 330.86 286.38 333.05 318.04" fill="#353947"/>
      <g>
        <path d="M288.17,268.4a5.68,5.68,0,1,1-6.06-5.28A5.69,5.69,0,0,1,288.17,268.4Z" fill="#fff"/>
        <path d="M290.88,307.66a5.68,5.68,0,1,1-6.06-5.28A5.68,5.68,0,0,1,290.88,307.66Z" fill="#fff"/>
        <path d="M322.43,305.48a5.68,5.68,0,1,1-6.06-5.28A5.69,5.69,0,0,1,322.43,305.48Z" fill="#fff"/>
      </g>
    </g>
    <g>
      <path d="M268.61,322.49,280.8,499.1a4.7,4.7,0,0,0,5,4.35l331.74-22.89a4.69,4.69,0,0,0,4.35-5L609.72,298.93Z" fill="#353947"/>
      <path d="M292.13,341.57l9.66,140.07,296.92-20.5-9.66-140.06Zm300,69.09-85.32,5.88-6-86.26,85.32-5.89ZM304.68,478.32l-1.46-21.27L593.93,437l1.47,21.27Zm-1.62-23.61-1.49-21.64L592.27,413l1.5,21.65Zm85.91-30-6-86.26,114.73-7.91,5.95,86.26Zm-9.05-86,6,86.26-84.48,5.83-6-86.26Z" fill="#fff"/>
    </g>
  </g>
  <text transform="translate(655.32 398.69)" font-size="109.62" fill="#16213e" font-family="CoolveticaRg-Regular, Coolvetica" letter-spacing="-0.1em">T<tspan x="49.33" y="0" letter-spacing="0em">elecin .</tspan></text>
  <text transform="translate(705.75 438.15)" font-size="35.08" fill="#16213e" font-family="CoolveticaRg-Regular, Coolvetica"><tspan letter-spacing="-0.14em">Y</tspan><tspan x="16.21" y="0" letter-spacing="0em">our </tspan><tspan x="72.36" y="0" letter-spacing="-0.05em">T</tspan><tspan x="89.87" y="0">v Series I</tspan><tspan x="220.49" y="0" letter-spacing="-0.03em">n</tspan><tspan x="237.19" y="0" letter-spacing="-0.03em">f</tspan><tspan x="246.42" y="0">ormation</tspan></text>
</svg>
